<svg width="28" height="28" viewBox="0 0 43 43" fill="none" xmlns="http://www.w3.org/2000/svg">
<path fill-rule="evenodd" clip-rule="evenodd" d="M27.0184 9.86393C28.8273 9.27913 30.9142 9.29059 32.6199 10.1649C36.5587 12.1888 38.2643 17.4061 36.6791 22.9331C35.9681 25.4127 34.7154 27.8207 32.0666 30.2488C29.4178 32.6797 25.7427 34.1131 24.0399 34.1131C23.8966 34.1153 23.7543 34.0893 23.6211 34.0365C23.4879 33.9837 23.3664 33.9051 23.2636 33.8052C23.1608 33.7053 23.0787 33.5862 23.022 33.4545C22.9654 33.3229 22.9353 33.1814 22.9334 33.0381C22.9334 32.4447 23.4379 31.9631 24.0399 31.9631C25.9864 31.9631 27.7265 30.9024 29.7876 29.3429C31.3643 28.1475 32.5969 26.6196 33.2763 25.2895C34.5807 22.7439 34.6237 19.1548 32.5167 18.2002C32.0275 18.7554 31.4246 19.1989 30.749 19.5006C30.0734 19.8023 29.3407 19.9552 28.6008 19.9489C25.1608 19.9489 23.1341 17.1825 23.2229 14.6771C23.3061 12.2834 24.8283 10.5777 27.0184 9.86393ZM9.8184 9.86393C11.6273 9.27913 13.7142 9.29059 15.4199 10.1649C19.3587 12.1888 21.0643 17.4061 19.4791 22.9331C18.7681 25.4127 17.5154 27.8207 14.8666 30.2488C12.2178 32.6797 8.54273 34.1131 6.83993 34.1131C6.69664 34.1153 6.5543 34.0893 6.42108 34.0365C6.28786 33.9837 6.16637 33.9051 6.06358 33.8052C5.96079 33.7053 5.87871 33.5862 5.82205 33.4545C5.76539 33.3229 5.73527 33.1814 5.7334 33.0381C5.7334 32.4447 6.23793 31.9631 6.83993 31.9631C8.7864 31.9631 10.5265 30.9024 12.5876 29.3429C14.1643 28.1475 15.3969 26.6196 16.0763 25.2895C17.3807 22.7439 17.4237 19.1548 15.3167 18.2002C14.3047 19.3067 12.9832 19.9489 11.4008 19.9489C7.9608 19.9489 5.93407 17.1825 6.02293 14.6771C6.10607 12.2834 7.62826 10.5777 9.8184 9.86393Z" fill="black"/>
</svg>
