<svg width="28" height="28" viewBox="0 0 43 43" fill="none" xmlns="http://www.w3.org/2000/svg">
<path d="M14.7812 26.875C19.6051 26.875 23.5156 22.9645 23.5156 18.1406C23.5156 13.3168 19.6051 9.40625 14.7812 9.40625C9.95739 9.40625 6.04688 13.3168 6.04688 18.1406C6.04688 22.9645 9.95739 26.875 14.7812 26.875Z" stroke="black" stroke-width="3" stroke-linecap="round" stroke-linejoin="round"/>
<path d="M26.1044 9.73165C27.3058 9.39317 28.5657 9.31606 29.7994 9.50552C31.033 9.69498 32.2118 10.1466 33.2562 10.83C34.3006 11.5133 35.1865 12.4126 35.8541 13.4671C36.5217 14.5217 36.9556 15.7071 37.1265 16.9434C37.2974 18.1798 37.2014 19.4384 36.8449 20.6346C36.4884 21.8307 35.8798 22.9365 35.0599 23.8776C34.2401 24.8187 33.2281 25.5732 32.0921 26.0903C30.9561 26.6073 29.7225 26.8749 28.4744 26.875C30.8465 26.8733 33.1841 27.4432 35.2893 28.5365C37.3945 29.6297 39.2052 31.2142 40.5682 33.1556M2.6875 33.1565C4.05155 31.2161 5.86245 29.6325 7.9673 28.5392C10.0722 27.4459 12.4092 26.8751 14.781 26.875C17.1529 26.8749 19.4899 27.4455 21.5948 28.5387C23.6998 29.6318 25.5108 31.2153 26.875 33.1556" stroke="black" stroke-width="3" stroke-linecap="round" stroke-linejoin="round"/>
</svg>
