<svg width="28" height="28" viewBox="0 0 43 43" fill="none" xmlns="http://www.w3.org/2000/svg">
<path d="M12.5415 19.709H16.1248V23.2923H12.5415V19.709ZM12.5415 26.8757H16.1248V30.459H12.5415V26.8757ZM19.7082 19.709H23.2915V23.2923H19.7082V19.709ZM19.7082 26.8757H23.2915V30.459H19.7082V26.8757ZM26.8748 19.709H30.4582V23.2923H26.8748V19.709ZM26.8748 26.8757H30.4582V30.459H26.8748V26.8757Z" fill="black"/>
<path d="M8.95833 39.4173H34.0417C36.0179 39.4173 37.625 37.8102 37.625 35.834V10.7507C37.625 8.77444 36.0179 7.16732 34.0417 7.16732H30.4583V3.58398H26.875V7.16732H16.125V3.58398H12.5417V7.16732H8.95833C6.98212 7.16732 5.375 8.77444 5.375 10.7507V35.834C5.375 37.8102 6.98212 39.4173 8.95833 39.4173ZM34.0417 14.334L34.0435 35.834H8.95833V14.334H34.0417Z" fill="black"/>
</svg>
