<svg width="30" height="30" viewBox="0 0 43 43" fill="none" xmlns="http://www.w3.org/2000/svg">
<path d="M21.5002 23.2923C20.9925 23.2923 20.5673 23.1203 20.2245 22.7763C19.8817 22.4323 19.7097 22.0071 19.7085 21.5007C19.7073 20.9942 19.8793 20.569 20.2245 20.225C20.5697 19.881 20.9949 19.709 21.5002 19.709C22.0054 19.709 22.4312 19.881 22.7776 20.225C23.124 20.569 23.2954 20.9942 23.2918 21.5007C23.2882 22.0071 23.1162 22.4329 22.7758 22.7781C22.4354 23.1233 22.0102 23.2947 21.5002 23.2923ZM21.5002 39.4173C19.0217 39.4173 16.6925 38.9467 14.5127 38.0055C12.3328 37.0643 10.4366 35.788 8.82412 34.1767C7.21162 32.5654 5.93536 30.6692 4.99533 28.4881C4.0553 26.3071 3.58469 23.9779 3.5835 21.5007C3.5823 19.0234 4.05292 16.6942 4.99533 14.5132C5.93775 12.3321 7.21401 10.4359 8.82412 8.82461C10.4342 7.2133 12.3304 5.93704 14.5127 4.99582C16.6949 4.0546 19.0241 3.58398 21.5002 3.58398C23.9762 3.58398 26.3054 4.0546 28.4877 4.99582C30.6699 5.93704 32.5661 7.2133 34.1762 8.82461C35.7863 10.4359 37.0632 12.3321 38.0068 14.5132C38.9504 16.6942 39.4204 19.0234 39.4168 21.5007C39.4133 23.9779 38.9426 26.3071 38.005 28.4881C37.0674 30.6692 35.7911 32.5654 34.1762 34.1767C32.5613 35.788 30.6651 37.0649 28.4877 38.0073C26.3102 38.9497 23.981 39.4197 21.5002 39.4173ZM21.5002 35.834C25.5016 35.834 28.8908 34.4454 31.6679 31.6684C34.445 28.8913 35.8335 25.502 35.8335 21.5007C35.8335 17.4993 34.445 14.11 31.6679 11.3329C28.8908 8.55586 25.5016 7.16732 21.5002 7.16732C17.4988 7.16732 14.1095 8.55586 11.3325 11.3329C8.55537 14.11 7.16683 17.4993 7.16683 21.5007C7.16683 25.502 8.55537 28.8913 11.3325 31.6684C14.1095 34.4454 17.4988 35.834 21.5002 35.834ZM13.3033 30.5934L24.5012 25.3527C24.6804 25.2631 24.8446 25.1437 24.9939 24.9944C25.1432 24.8451 25.2627 24.6809 25.3522 24.5017L30.5929 13.3038C30.7422 13.0052 30.7052 12.7436 30.4818 12.519C30.2584 12.2945 29.9968 12.2574 29.697 12.4079L18.4991 17.6486C18.32 17.7382 18.1557 17.8576 18.0064 18.0069C17.8571 18.1562 17.7377 18.3204 17.6481 18.4996L12.4075 29.6975C12.2582 29.9961 12.2958 30.2577 12.5203 30.4823C12.7449 30.7068 13.0059 30.7439 13.3033 30.5934Z" fill="black"/>
</svg>
