<svg width="43" height="43" viewBox="0 0 43 43" fill="none" xmlns="http://www.w3.org/2000/svg">
<path d="M14.1226 15.5499C14.119 15.6367 14.1331 15.7233 14.1641 15.8044C14.1952 15.8856 14.2425 15.9595 14.3031 16.0217C14.3638 16.0838 14.4365 16.1329 14.5169 16.166C14.5972 16.199 14.6835 16.2152 14.7703 16.2137H16.9875C17.3584 16.2137 17.654 15.91 17.7024 15.5418C17.9443 13.7788 19.1536 12.4942 21.309 12.4942C23.1526 12.4942 24.8404 13.416 24.8404 15.6332C24.8404 17.3397 23.8353 18.1245 22.247 19.3178C20.4383 20.6319 19.0058 22.1665 19.108 24.6578L19.116 25.241C19.1188 25.4173 19.1909 25.5855 19.3166 25.7092C19.4423 25.8328 19.6115 25.9021 19.7879 25.9021H21.9675C22.1456 25.9021 22.3165 25.8313 22.4425 25.7053C22.5685 25.5793 22.6393 25.4084 22.6393 25.2302V24.9481C22.6393 23.0184 23.373 22.4567 25.3537 20.9544C26.9904 19.7101 28.697 18.3288 28.697 15.4289C28.697 11.3681 25.2677 9.40625 21.5133 9.40625C18.1082 9.40625 14.378 10.9919 14.1226 15.5499ZM18.3071 31.0379C18.3071 32.4704 19.4493 33.5292 21.0215 33.5292C22.6581 33.5292 23.7842 32.4704 23.7842 31.0379C23.7842 29.5544 22.6555 28.5117 21.0188 28.5117C19.4493 28.5117 18.3071 29.5544 18.3071 31.0379Z" fill="black"/>
</svg>
