<svg width="18" height="20" viewBox="0 0 14 14" fill="none" xmlns="http://www.w3.org/2000/svg">
<path d="M6.16055 4H6.96555H7.03446H7.83945H9.84375C10.7242 4 11.4375 3.28669 11.4375 2.40625C11.4375 1.52581 10.7242 0.8125 9.84375 0.8125H9.78359C9.19833 0.8125 8.65751 1.12284 8.36022 1.62745L8.35997 1.62787L7.40841 3.24662L7 3.94139L6.59159 3.24662L5.64124 1.62994C5.641 1.62953 5.64076 1.62912 5.64053 1.62872C5.34472 1.12094 4.79935 0.8125 4.21641 0.8125H4.15625C3.27581 0.8125 2.5625 1.52581 2.5625 2.40625C2.5625 3.28669 3.27581 4 4.15625 4H6.16055ZM2.0125 4H2.82756L2.45822 3.27343C2.32567 3.01269 2.25 2.71816 2.25 2.40625C2.25 1.35349 3.10349 0.5 4.15625 0.5H4.21641C4.91152 0.5 5.55672 0.868335 5.90981 1.4699L5.90997 1.47017L6.56895 2.59126L7.00052 3.32547L7.43132 2.5908L8.08979 1.46785C8.08991 1.46764 8.09003 1.46743 8.09016 1.46722C8.44326 0.868317 9.0885 0.5 9.78359 0.5H9.84375C10.8965 0.5 11.75 1.35349 11.75 2.40625C11.75 2.71816 11.6743 3.01269 11.5418 3.27343L11.1724 4H11.9875H13.125C13.3328 4 13.5 4.16716 13.5 4.375V6.125C13.5 6.33284 13.3328 6.5 13.125 6.5H0.875C0.667158 6.5 0.5 6.33284 0.5 6.125V4.375C0.5 4.16716 0.667158 4 0.875 4H2.0125Z" stroke="#008037"/>
<path d="M2 7.5H1.5V8V11.9286C1.5 12.7962 2.20377 13.5 3.07143 13.5H6.28571H6.78571V13V8V7.5H6.28571H2ZM7.21429 13V13.5H7.71429H10.9286C11.7962 13.5 12.5 12.7962 12.5 11.9286V8V7.5H12H7.71429H7.21429V8V10.5V13Z" stroke="#008037"/>
</svg>
