<svg width="50" height="57" viewBox="0 0 54 61" fill="none" xmlns="http://www.w3.org/2000/svg">
<path d="M24.4054 46.5391L18.5806 49.8222L18.7924 52.258L19.8514 55.8588L22.1814 58.5065C22.1814 58.5065 22.605 58.7183 24.0877 59.1419C25.5704 59.5655 27.4767 59.4596 27.4767 59.4596L30.4421 57.6592L32.2425 54.6938L32.9838 49.5044L28.4299 46.5391H24.4054Z" fill="#D9D9D9"/>
<path d="M41.2447 21.6509C41.2447 36.9014 32.6417 35.6305 24.5115 35.6305C16.3813 35.6305 15.8272 35.4187 11.1673 21.7568C10.0023 16.5674 15.9577 8.41261 24.0879 8.41261C32.5604 7.24764 41.2447 14.8075 41.2447 21.6509Z" fill="#FFEBA5"/>
<path d="M24.2995 39.761L19.1101 35.5248L18.5806 34.2539H34.5724L33.3015 35.9484L28.8535 39.761H24.2995Z" fill="#FFEBA5"/>
<path d="M9.896 1L15.6149 6.71894" stroke="black" stroke-linecap="round"/>
<path d="M1 26.3112L7.6721 24.8285M21.4399 2.16453L22.7108 5.76535M34.3605 7.14213L35.3136 5.92421L36.2668 4.70628M30.8656 5.87125L33.0896 1.10547M39.5499 11.0607L49.8228 5.87125M44.6334 26.6818L53 25.358M44.2098 20.6452L46.9633 19.5332" stroke="black" stroke-linecap="round"/>
<path d="M6.0835 12.8613L9.4725 13.7086" stroke="black" stroke-linecap="round"/>
<path d="M14.5561 33.7249C19.0465 34.4874 22.8521 38.2083 24.1935 39.9734H28.6416V46.2218H24.1935C17.2889 52.4988 9.79028 50.564 10.108 49.1872C9.61377 43.4683 10.0656 32.9624 14.5561 33.7249Z" fill="#008037"/>
<path d="M24.1935 39.9734C22.8521 38.2083 19.0465 34.4874 14.5561 33.7249C10.0656 32.9624 9.61377 43.4683 10.108 49.1872C9.79028 50.564 17.2889 52.4988 24.1935 46.2218M24.1935 39.9734V46.2218M24.1935 39.9734H28.6416V46.2218H24.1935" stroke="black" stroke-linecap="round"/>
<path d="M38.1733 33.6586C33.6827 34.423 29.877 38.1532 28.5355 39.9228H24.0873V46.187H28.5355C35.4403 52.4797 42.9392 50.5401 42.6215 49.1598C43.1157 43.4265 42.6638 32.8941 38.1733 33.6586Z" fill="#008037"/>
<path d="M28.5355 39.9228C29.877 38.1532 33.6827 34.423 38.1733 33.6586C42.6638 32.8941 43.1157 43.4265 42.6215 49.1598C42.9392 50.5401 35.4403 52.4797 28.5355 46.187M28.5355 39.9228H24.0873V46.187H28.5355M28.5355 39.9228V46.187" stroke="black" stroke-linecap="round"/>
<path d="M19.2158 40.3965L21.6517 41.0319L23.8757 41.8792" stroke="black" stroke-linecap="round"/>
<path d="M18.8984 45.1633L23.9819 43.4688" stroke="black" stroke-linecap="round"/>
<path d="M28.9595 42.2107C30.4422 41.5752 33.2593 40.029 33.9371 40.1984" stroke="black" stroke-linecap="round"/>
<path d="M28.9595 43.5742L34.4666 45.0569" stroke="black" stroke-linecap="round"/>
<path d="M16.5684 34.2555C13.9207 29.172 9.02738 21.6472 12.1203 15.616C16.3565 7.35533 31.3953 5.44902 37.5378 13.6038C43.6804 21.7586 40.9268 30.1252 38.9146 32.3492C37.5398 33.8688 34.6077 34.7851 34.4665 34.9969" stroke="black" stroke-linecap="round"/>
<path d="M18.4746 50.0343C18.4746 62.4254 33.0897 63.6962 33.0897 49.293" stroke="black" stroke-linecap="round"/>
<ellipse cx="23.2408" cy="18.8972" rx="0.847251" ry="1.58859" fill="black"/>
<ellipse cx="28.7974" cy="18.8455" rx="0.797412" ry="1.85336" fill="black"/>
<path d="M21.5459 37.0077L17.5215 26.6289" stroke="black" stroke-linecap="round"/>
<path d="M31.501 36.7963L34.7841 26.5234" stroke="black" stroke-linecap="round"/>
<path d="M17.5811 26.6374C18.704 26.6374 19.8148 27.0393 20.9512 26.913C21.719 26.8277 22.4634 25.8879 22.8963 25.3268C23.7407 24.2322 25.8326 24.2427 26.3081 25.722C26.4519 26.1695 26.6834 27.3863 25.866 27.3863C25.5361 27.3863 25.5383 26.0347 25.5383 25.774C25.5383 25.0545 26.1849 24.6715 26.849 24.6715C27.5523 24.6715 27.7055 24.7224 28.1596 25.2332C28.4457 25.5551 28.6088 26.5777 28.3936 26.965C28.0578 27.5695 28.066 27.0188 28.066 26.6374C28.066 25.65 27.9395 24.3906 29.3038 24.3906C30.5484 24.3906 31.5035 26.6374 32.7718 26.6374C33.1861 26.6374 33.2047 26.6374 33.619 26.6374C34.008 26.6374 34.4323 26.5234 34.784 26.5234" stroke="black" stroke-linecap="round"/>
</svg>
