<svg width="32" height="32" viewBox="0 0 43 43" fill="none" xmlns="http://www.w3.org/2000/svg">
<path d="M22.5572 23.2925L18.4364 27.3954C18.2685 27.562 18.1352 27.7601 18.0442 27.9785C17.9533 28.1968 17.9064 28.431 17.9064 28.6675C17.9064 28.904 17.9533 29.1382 18.0442 29.3565C18.1352 29.5749 18.2685 29.773 18.4364 29.9396C18.603 30.1075 18.8011 30.2408 19.0195 30.3318C19.2378 30.4227 19.472 30.4696 19.7085 30.4696C19.945 30.4696 20.1792 30.4227 20.3975 30.3318C20.6159 30.2408 20.814 30.1075 20.9806 29.9396L28.1472 22.7729C28.3104 22.6025 28.4382 22.4016 28.5235 22.1817C28.7027 21.7455 28.7027 21.2562 28.5235 20.82C28.4382 20.6001 28.3104 20.3991 28.1472 20.2287L20.9806 13.0621C20.8135 12.895 20.6152 12.7625 20.3969 12.6721C20.1787 12.5817 19.9447 12.5352 19.7085 12.5352C19.4722 12.5352 19.2383 12.5817 19.02 12.6721C18.8018 12.7625 18.6035 12.895 18.4364 13.0621C18.2694 13.2291 18.1368 13.4275 18.0464 13.6457C17.956 13.864 17.9095 14.0979 17.9095 14.3342C17.9095 14.5704 17.956 14.8043 18.0464 15.0226C18.1368 15.2409 18.2694 15.4392 18.4364 15.6062L22.5572 19.7092H5.37516C4.89998 19.7092 4.44427 19.8979 4.10826 20.2339C3.77226 20.5699 3.5835 21.0257 3.5835 21.5008C3.5835 21.976 3.77226 22.4317 4.10826 22.7677C4.44427 23.1037 4.89998 23.2925 5.37516 23.2925H22.5572ZM21.5002 3.58416C18.1517 3.56921 14.8661 4.49292 12.0159 6.25051C9.16578 8.00809 6.86521 10.5292 5.37516 13.5279C5.16133 13.9556 5.12615 14.4507 5.27735 14.9043C5.42855 15.3579 5.75375 15.7328 6.18141 15.9467C6.60907 16.1605 7.10416 16.1957 7.55777 16.0445C8.01137 15.8933 8.38633 15.5681 8.60016 15.1404C9.73284 12.853 11.4558 10.9096 13.5909 9.51097C15.7261 8.11234 18.196 7.30925 20.7454 7.18468C23.2949 7.06012 25.8313 7.6186 28.0926 8.80241C30.354 9.98623 32.2582 11.7524 33.6084 13.9185C34.9587 16.0846 35.7061 18.5719 35.7733 21.1235C35.8405 23.6751 35.2252 26.1983 33.9908 28.4325C32.7564 30.6666 30.9479 32.5306 28.752 33.8318C26.5561 35.1331 24.0526 35.8243 21.5002 35.8342C18.8286 35.8457 16.2079 35.1038 13.9388 33.6936C11.6697 32.2833 9.84422 30.2619 8.67183 27.8612C8.458 27.4336 8.08304 27.1084 7.62943 26.9572C7.17583 26.806 6.68074 26.8412 6.25308 27.055C5.82542 27.2688 5.50022 27.6438 5.34902 28.0974C5.19781 28.551 5.233 29.0461 5.44683 29.4737C6.86731 32.3324 9.02572 34.7596 11.6988 36.5043C14.3719 38.2491 17.4625 39.248 20.6511 39.3978C23.8397 39.5475 27.0104 38.8427 29.8353 37.3562C32.6601 35.8697 35.0365 33.6555 36.7187 30.9426C38.4009 28.2297 39.3277 25.1167 39.4034 21.9255C39.479 18.7343 38.7007 15.5808 37.149 12.7912C35.5973 10.0017 33.3285 7.67735 30.5772 6.05864C27.826 4.43994 24.6923 3.58566 21.5002 3.58416Z" fill="black"/>
</svg>
