<svg width="20" height="20" viewBox="0 0 20 20" fill="none" xmlns="http://www.w3.org/2000/svg">
<path d="M4.83827 16.9576L4.83674 16.9568C4.78525 16.9278 4.74238 16.8857 4.71251 16.8348C4.6827 16.7839 4.66691 16.7261 4.66674 16.6671V4.44264H4.66687L4.66662 4.43137C4.65832 4.06315 4.79546 3.70648 5.04832 3.43868C5.29934 3.17282 5.64433 3.0158 6.00945 3.00098H13.9907C14.3558 3.0158 14.7008 3.17282 14.9518 3.43868C15.2047 3.70648 15.3418 4.06315 15.3335 4.43137L15.3334 4.43137V4.44264V16.6658C15.3328 16.7236 15.3173 16.7802 15.2883 16.8302C15.259 16.8804 15.2171 16.9222 15.1668 16.9513L15.1667 16.9513C15.1161 16.9806 15.0586 16.996 15.0001 16.996C14.9416 16.996 14.8841 16.9806 14.8334 16.9513L14.8334 16.9513L14.8297 16.9492L10.1047 14.2742L9.85102 14.1306L9.60104 14.2806L5.15938 16.9473L5.15935 16.9473L5.15305 16.9512C5.10506 16.981 5.05032 16.998 4.99399 17.0009C4.93936 16.9995 4.88588 16.9846 4.83827 16.9576Z" stroke="white"/>
</svg>
