<svg width="20" height="20" viewBox="0 0 20 20" fill="none" xmlns="http://www.w3.org/2000/svg">
<path d="M5.00008 17.501C4.85692 17.5005 4.71629 17.4632 4.59174 17.3926C4.46302 17.3203 4.35584 17.215 4.28116 17.0876C4.20648 16.9603 4.167 16.8153 4.16674 16.6676V4.44264C4.15548 3.94291 4.3416 3.45886 4.68477 3.09541C5.02794 2.73196 5.50052 2.51839 6.00008 2.50098H14.0001C14.4996 2.51839 14.9722 2.73196 15.3154 3.09541C15.6586 3.45886 15.8447 3.94291 15.8334 4.44264V16.6676C15.8325 16.8131 15.7936 16.9557 15.7205 17.0815C15.6474 17.2072 15.5427 17.3116 15.4167 17.3843C15.2901 17.4575 15.1464 17.496 15.0001 17.496C14.8538 17.496 14.7101 17.4575 14.5834 17.3843L9.85841 14.7093L5.41674 17.376C5.29137 17.4538 5.14758 17.4969 5.00008 17.501V17.501Z" fill="#008037"/>
</svg>
