<svg width="15" height="14" viewBox="0 0 15 14" fill="none" xmlns="http://www.w3.org/2000/svg">
<path fill-rule="evenodd" clip-rule="evenodd" d="M2.8125 1.4C2.43954 1.4 2.08185 1.5475 1.81813 1.81005C1.55441 2.0726 1.40625 2.4287 1.40625 2.8V8.4C1.40625 8.7713 1.55441 9.1274 1.81813 9.38995C2.08185 9.6525 2.43954 9.8 2.8125 9.8H4.21875V11.2933L6.15656 9.9288L6.33844 9.8H12.1875C12.5605 9.8 12.9181 9.6525 13.1819 9.38995C13.4456 9.1274 13.5937 8.7713 13.5938 8.4V2.8C13.5937 2.4287 13.4456 2.0726 13.1819 1.81005C12.9181 1.5475 12.5605 1.4 12.1875 1.4H2.8125ZM0 2.8C0 2.05739 0.296316 1.3452 0.823762 0.820101C1.35121 0.294999 2.06658 0 2.8125 0H12.1875C12.9334 0 13.6488 0.294999 14.1762 0.820101C14.7037 1.3452 15 2.05739 15 2.8V8.4C15 9.14261 14.7037 9.8548 14.1762 10.3799C13.6488 10.905 12.9334 11.2 12.1875 11.2H6.78656L3.92156 13.2179L2.8125 14V11.2C2.06658 11.2 1.35121 10.905 0.823762 10.3799C0.296316 9.8548 0 9.14261 0 8.4L0 2.8Z" fill="#536571"/>
</svg>
