<svg width="24" height="24" viewBox="0 0 24 24" fill="none" xmlns="http://www.w3.org/2000/svg">
<path fill-rule="evenodd" clip-rule="evenodd" d="M7.1569 4.7999C5.2441 4.7999 3.4813 6.5663 3.4813 9.0179C3.4813 11.0219 4.8985 13.2275 6.8641 15.2579C8.7481 17.2019 10.9021 18.7499 11.9881 19.4783C13.0657 18.6563 15.2521 16.9091 17.1673 14.8751C18.1393 13.8431 19.0141 12.7679 19.6393 11.7263C20.2741 10.6703 20.5873 9.7547 20.5873 9.0179C20.5873 6.5663 18.8257 4.7999 16.9105 4.7999C14.9953 4.7999 13.2337 6.5663 13.2337 9.0179C13.2337 9.33616 13.1073 9.64139 12.8822 9.86643C12.6572 10.0915 12.352 10.2179 12.0337 10.2179C11.7154 10.2179 11.4102 10.0915 11.1852 9.86643C10.9601 9.64139 10.8337 9.33616 10.8337 9.0179C10.8337 6.5663 9.0721 4.7999 7.1569 4.7999ZM12.0337 5.0711C10.9453 3.4703 9.2017 2.3999 7.1569 2.3999C3.6853 2.3999 1.0813 5.4851 1.0813 9.0179C1.0813 12.0251 3.1093 14.8295 5.1397 16.9259C7.2229 19.0775 9.5749 20.7515 10.7029 21.5063C11.5345 22.0631 12.6109 22.0187 13.3969 21.4223C14.5009 20.5823 16.8397 18.7223 18.9145 16.5203C19.9513 15.4199 20.9497 14.2043 21.6961 12.9623C22.4317 11.7383 22.9861 10.3823 22.9873 9.0227V9.0179C22.9873 5.4851 20.3833 2.3999 16.9105 2.3999C14.8657 2.3999 13.1221 3.4703 12.0337 5.0711Z" fill="#008037"/>
</svg>
