<svg width="24" height="24" viewBox="0 0 24 24" fill="none" xmlns="http://www.w3.org/2000/svg">
<path d="M18 8.31039C17.64 7.90039 17.27 7.49039 16.88 7.10039L16.59 6.83039L16.73 6.71039C17.219 6.2906 17.5675 5.73091 17.7284 5.10683C17.8894 4.48275 17.855 3.82433 17.63 3.22039C17.3039 2.53936 16.7876 1.96732 16.1434 1.57337C15.4992 1.17942 14.7548 0.980417 14 1.00039V3.00039C14.3558 2.99544 14.7065 3.0855 15.0158 3.26129C15.3252 3.43707 15.5821 3.69221 15.76 4.00039C15.93 4.40039 15.76 4.84039 15.29 5.31039C15.22 5.39039 15.14 5.44039 15.07 5.51039C12.07 3.10039 8.77998 1.74039 7.16998 3.35039C7.00134 3.52279 6.86275 3.72222 6.75998 3.94039V4.04039L6.57998 4.57039L2.16998 17.6704C2.00317 18.1641 1.95638 18.6904 2.03348 19.2057C2.11058 19.721 2.30935 20.2106 2.61333 20.6338C2.91731 21.0571 3.31775 21.4018 3.78148 21.6394C4.24522 21.8771 4.7589 22.0008 5.27998 22.0004C5.62022 21.9971 5.95777 21.9397 6.27998 21.8304L20 17.2804C20.1686 17.2176 20.3171 17.1105 20.43 16.9704L20.64 16.7904C22.07 15.3504 21.15 12.5804 19.23 9.89039C20.37 9.22505 21.6827 8.91515 23 9.00039V7.00039C21.2373 6.90341 19.4886 7.36157 18 8.31039ZM5.69998 19.9304C5.47299 20.0055 5.22958 20.0161 4.99693 19.9609C4.76428 19.9057 4.55155 19.787 4.38248 19.6179C4.21341 19.4488 4.09465 19.2361 4.03947 19.0034C3.98429 18.7708 3.99485 18.5274 4.06998 18.3004L5.42998 14.2004C6.40056 16.0513 7.89194 17.5774 9.71998 18.5904L5.69998 19.9304ZM12.7 17.6004C11.1887 17.2002 9.81006 16.4076 8.70372 15.303C7.59737 14.1984 6.80262 12.821 6.39998 11.3104L7.39998 8.31039L7.45998 8.40039C7.56998 8.62039 7.70998 8.85039 7.84998 9.08039C7.98998 9.31039 8.00998 9.37039 8.10998 9.52039C8.20998 9.67039 8.43998 10.0004 8.61998 10.2504C8.79998 10.5004 8.80998 10.5304 8.91998 10.6704C9.02998 10.8104 9.34998 11.2204 9.57998 11.4904L9.86998 11.8404C10.21 12.2304 10.57 12.6104 10.95 13.0004C11.33 13.3904 11.63 13.6404 11.95 14.0004L12.28 14.2804L13.06 14.9104L13.43 15.1904C13.71 15.3904 13.98 15.5904 14.26 15.7704L14.57 15.9704C14.93 16.1904 15.29 16.4004 15.64 16.5804H15.69L12.7 17.6004ZM19.21 15.3704H19.15C18.46 15.7504 15.59 14.8004 12.36 11.5604C12.02 11.2204 11.7 10.8904 11.41 10.5604L11.12 10.2104L10.59 9.57039L10.3 9.17039C10.17 8.98039 10.03 8.80039 9.90998 8.62039L9.64998 8.20039L9.35998 7.73039C9.27998 7.59039 9.21998 7.46039 9.14998 7.33039C9.07998 7.20039 8.99998 7.07039 8.93998 6.93039C8.88635 6.81322 8.8396 6.69302 8.79998 6.57039C8.74998 6.44039 8.68998 6.31039 8.64998 6.19039C8.60998 6.07039 8.59998 6.00039 8.56998 5.88039C8.53998 5.76039 8.51998 5.66039 8.49998 5.56039C8.49499 5.4738 8.49499 5.38699 8.49998 5.30039C8.49035 5.22068 8.49035 5.1401 8.49998 5.06039L8.60998 4.75039C8.96998 4.39039 10.84 4.75039 13.34 6.65039C12.9162 6.84165 12.4632 6.95998 12 7.00039V9.00039C13.0622 8.93929 14.0928 8.61637 15 8.06039L15.48 8.52039C15.9 8.94039 16.29 9.37039 16.66 9.80039C16.0876 10.8355 15.8764 12.0319 16.06 13.2004L18.06 12.8104C18.0011 12.4394 18.0011 12.0614 18.06 11.6904C18.3652 12.1532 18.6359 12.6378 18.87 13.1404C19.43 14.4604 19.39 15.2004 19.21 15.3704Z" fill="#008037"/>
</svg>
