<svg width="24" height="24" viewBox="0 0 24 24" fill="none" xmlns="http://www.w3.org/2000/svg">
<path d="M18.6757 2H5.33513C4.4506 2 3.6023 2.35138 2.97684 2.97684C2.35138 3.6023 2 4.4506 2 5.33513V18.6757C2 19.5602 2.35138 20.4085 2.97684 21.0339C3.6023 21.6594 4.4506 22.0108 5.33513 22.0108H18.6757C19.5602 22.0108 20.4085 21.6594 21.0339 21.0339C21.6594 20.4085 22.0108 19.5602 22.0108 18.6757V5.33513C22.0108 4.4506 21.6594 3.6023 21.0339 2.97684C20.4085 2.35138 19.5602 2 18.6757 2ZM5.33513 4.22342H18.6757C18.9705 4.22342 19.2533 4.34055 19.4618 4.54903C19.6702 4.75752 19.7874 5.04029 19.7874 5.33513V14.629L16.2299 11.5941C15.6787 11.1405 14.9871 10.8926 14.2733 10.8926C13.5595 10.8926 12.8679 11.1405 12.3167 11.5941L4.22342 18.3421V5.33513C4.22342 5.04029 4.34055 4.75752 4.54903 4.54903C4.75752 4.34055 5.04029 4.22342 5.33513 4.22342V4.22342ZM18.6757 19.7874H5.95769L13.7397 13.295C13.8892 13.184 14.0704 13.124 14.2566 13.124C14.4428 13.124 14.6241 13.184 14.7736 13.295L19.7874 17.5639V18.6757C19.7874 18.9705 19.6702 19.2533 19.4618 19.4618C19.2533 19.6702 18.9705 19.7874 18.6757 19.7874Z" fill="#008037"/>
<path d="M7.55843 9.7824C8.47941 9.7824 9.226 9.0358 9.226 8.11483C9.226 7.19386 8.47941 6.44727 7.55843 6.44727C6.63746 6.44727 5.89087 7.19386 5.89087 8.11483C5.89087 9.0358 6.63746 9.7824 7.55843 9.7824Z" fill="#008037"/>
</svg>
