<svg width="33" height="22" viewBox="0 0 33 22" fill="none" xmlns="http://www.w3.org/2000/svg">
<path d="M0.12 0.979999V3.98H4.18V0.979999H0.12ZM0.0600001 5.42C0.18 6.32 0.22 7.14 0.22 8.44V14.6C0.22 15.88 0.18 16.64 0.0600001 17.62H4.24C4.14 16.76 4.08 15.68 4.08 14.6V8.44C4.08 7.04 4.12 6.24 4.24 5.42H0.0600001ZM32.2973 5.42C31.3573 5.22 30.9573 5.18 30.3173 5.18C28.4973 5.18 27.2973 5.72 26.3173 7V5.42H22.3373C22.4573 6.28 22.4973 6.98 22.4973 8.44V14.6C22.4973 15.9 22.4573 16.62 22.3373 17.62H26.4773C26.3573 16.66 26.3173 15.9 26.3173 14.62V11.5C26.3973 10.62 26.5373 10.2 26.9173 9.72C27.4973 9 28.2773 8.64 29.2973 8.64C29.9173 8.64 30.4173 8.74 31.3373 9.02L32.2973 5.42Z" fill="#F399BF"/>
<path d="M10.7186 21.24C10.5986 20.38 10.5586 19.46 10.5586 18.34V16.96C10.5386 16.68 10.5386 16.42 10.5386 16.24C11.0986 16.72 11.3986 16.94 11.9186 17.16C12.6586 17.48 13.6786 17.68 14.6186 17.68C16.2586 17.68 17.7186 17.12 18.7386 16.1C19.8786 14.96 20.4786 13.3 20.4786 11.26C20.4786 9.24 19.9386 7.66 18.8786 6.6C17.8386 5.58 16.3986 5.06 14.6386 5.06C12.9786 5.06 11.7386 5.48 10.5386 6.48C10.5386 6.38 10.5586 6.22 10.5586 6.1V5.42H6.61859C6.73859 6.44 6.77859 7.26 6.77859 8.56V18.32C6.77859 19.38 6.71859 20.38 6.61859 21.24H10.7186ZM13.7386 14.66C11.9386 14.66 10.5986 13.24 10.5986 11.36C10.5986 9.54 11.9586 8.08 13.6186 8.08C15.4986 8.08 16.5786 9.26 16.5786 11.3C16.5786 12.44 16.2586 13.36 15.6986 13.9C15.1786 14.4 14.4986 14.66 13.7386 14.66Z" fill="#F3D9B4"/>
</svg>
