<svg width="37" height="42" viewBox="0 0 37 42" fill="none" xmlns="http://www.w3.org/2000/svg">
<path d="M16.7536 31.6519L12.833 33.8616L12.9756 35.5011L13.6884 37.9248L15.2566 39.7068C15.2566 39.7068 15.5418 39.8494 16.5397 40.1345C17.5377 40.4197 18.8208 40.3484 18.8208 40.3484L20.8167 39.1366L22.0285 37.1407L22.5275 33.6478L19.4623 31.6519H16.7536Z" fill="#D9D9D9"/>
<path d="M28.0877 14.9001C28.0877 25.1649 22.2972 24.3095 16.8249 24.3095C11.3527 24.3095 10.9797 24.1669 7.84325 14.9714C7.05913 11.4785 11.0676 5.9897 16.5398 5.9897C22.2424 5.20559 28.0877 10.294 28.0877 14.9001Z" fill="#FFEBA5"/>
<path d="M16.6823 27.0895L13.1894 24.2382L12.833 23.3828H23.5968L22.7414 24.5233L19.7475 27.0895H16.6823Z" fill="#FFEBA5"/>
<path d="M6.98779 1L10.8371 4.84929" stroke="black" stroke-linecap="round"/>
<path d="M1 18.0362L5.49083 17.0382M14.7576 1.78363L15.613 4.20726M23.4542 5.13394L24.0957 4.31418L24.7373 3.49443M21.1018 4.27854L22.5988 1.0708M26.947 7.77141L33.8615 4.27854M30.3686 18.2857L36 17.3946M30.0835 14.2225L31.9369 13.4741" stroke="black" stroke-linecap="round"/>
<path d="M4.42163 8.9834L6.70269 9.55366" stroke="black" stroke-linecap="round"/>
<path d="M10.1241 23.0265C13.1465 23.5397 15.708 26.0441 16.6109 27.2322H19.6048V31.4379H16.6109C11.9636 35.6627 6.91637 34.3605 7.13023 33.4338C6.79757 29.5845 7.10171 22.5132 10.1241 23.0265Z" fill="#EB0B0B"/>
<path d="M16.6109 27.2322C15.708 26.0441 13.1465 23.5397 10.1241 23.0265C7.10171 22.5132 6.79757 29.5845 7.13023 33.4338C6.91637 34.3605 11.9636 35.6627 16.6109 31.4379M16.6109 27.2322V31.4379M16.6109 27.2322H19.6048V31.4379H16.6109" stroke="black" stroke-linecap="round"/>
<path d="M26.0206 22.9816C22.9981 23.4962 20.4366 26.0069 19.5336 27.1979H16.5396V31.4142H19.5336C24.1811 35.6497 29.2284 34.3442 29.0145 33.4151C29.3472 29.5562 29.0431 22.4671 26.0206 22.9816Z" fill="#EB0B0B"/>
<path d="M19.5336 27.1979C20.4366 26.0069 22.9981 23.4962 26.0206 22.9816C29.0431 22.4671 29.3472 29.5562 29.0145 33.4151C29.2284 34.3442 24.1811 35.6497 19.5336 31.4142M19.5336 27.1979H16.5396V31.4142H19.5336M19.5336 27.1979V31.4142" stroke="black" stroke-linecap="round"/>
<path d="M13.2607 27.5171L14.9003 27.9448L16.3972 28.5151" stroke="black" stroke-linecap="round"/>
<path d="M13.0471 30.725L16.4687 29.5845" stroke="black" stroke-linecap="round"/>
<path d="M19.8188 28.7381C20.8168 28.3104 22.7129 27.2696 23.1692 27.3837" stroke="black" stroke-linecap="round"/>
<path d="M19.8188 29.6558L23.5256 30.6537" stroke="black" stroke-linecap="round"/>
<path d="M11.4788 23.3833C9.69673 19.9618 6.40314 14.897 8.48491 10.8375C11.3362 5.27744 21.4584 3.99434 25.5929 9.48314C29.7273 14.9719 27.8739 20.6033 26.5195 22.1002C25.5942 23.123 23.6207 23.7398 23.5256 23.8823" stroke="black" stroke-linecap="round"/>
<path d="M12.7617 34.0039C12.7617 42.344 22.5988 43.1994 22.5988 33.5049" stroke="black" stroke-linecap="round"/>
<ellipse cx="15.9697" cy="13.0468" rx="0.570265" ry="1.06925" fill="black"/>
<ellipse cx="19.7096" cy="13.0116" rx="0.53672" ry="1.24745" fill="black"/>
<path d="M14.8289 25.2362L12.1201 18.2505" stroke="black" stroke-linecap="round"/>
<path d="M21.5295 25.0937L23.7393 18.1792" stroke="black" stroke-linecap="round"/>
<path d="M12.1604 18.2559C12.9162 18.2559 13.6639 18.5264 14.4288 18.4414C14.9456 18.384 15.4466 17.7515 15.738 17.3738C16.3063 16.637 17.7143 16.6441 18.0344 17.6398C18.1312 17.941 18.287 18.76 17.7368 18.76C17.5147 18.76 17.5163 17.8502 17.5163 17.6748C17.5163 17.1905 17.9515 16.9327 18.3984 16.9327C18.8718 16.9327 18.9749 16.9669 19.2806 17.3107C19.4731 17.5274 19.5829 18.2157 19.4381 18.4764C19.212 18.8833 19.2175 18.5126 19.2175 18.2559C19.2175 17.5913 19.1324 16.7437 20.0507 16.7437C20.8884 16.7437 21.5313 18.2559 22.3849 18.2559C22.6638 18.2559 22.6763 18.2559 22.9552 18.2559C23.217 18.2559 23.5026 18.1792 23.7393 18.1792" stroke="black" stroke-linecap="round"/>
</svg>
