<svg width="181" height="181" viewBox="0 0 181 181" fill="none" xmlns="http://www.w3.org/2000/svg">
<circle cx="90.5" cy="90.5" r="86.5" fill="#A9D097" stroke="white" stroke-width="8"/>
<path d="M77.835 49.5873L84.5639 61.0342H70.3906C66.1174 61.0342 62.6562 57.573 62.6562 53.2998C62.6562 49.0266 66.1174 45.5654 70.3906 45.5654H70.816C73.6971 45.5654 76.3848 47.093 77.835 49.5873ZM53.375 53.2998C53.375 56.0842 54.0518 58.7139 55.2312 61.0342H47.1875C43.765 61.0342 41 63.7992 41 67.2217V79.5967C41 83.0191 43.765 85.7842 47.1875 85.7842H133.812C137.235 85.7842 140 83.0191 140 79.5967V67.2217C140 63.7992 137.235 61.0342 133.812 61.0342H125.769C126.948 58.7139 127.625 56.0842 127.625 53.2998C127.625 43.9025 120.007 36.2842 110.609 36.2842H110.184C104.016 36.2842 98.2924 39.552 95.16 44.8693L90.5 52.8164L85.84 44.8887C82.7076 39.552 76.9842 36.2842 70.816 36.2842H70.3906C60.9934 36.2842 53.375 43.9025 53.375 53.2998ZM118.344 53.2998C118.344 57.573 114.883 61.0342 110.609 61.0342H96.4361L103.165 49.5873C104.635 47.093 107.303 45.5654 110.184 45.5654H110.609C114.883 45.5654 118.344 49.0266 118.344 53.2998ZM47.1875 91.9717V126.003C47.1875 131.127 51.3447 135.284 56.4687 135.284H84.3125V91.9717H47.1875ZM96.6875 135.284H124.531C129.655 135.284 133.812 131.127 133.812 126.003V91.9717H96.6875V135.284Z" fill="#139CBA"/>
</svg>
